<svg xmlns="http://www.w3.org/2000/svg" viewBox="0 0 520 100" role="img" aria-label="barbed wire">
  <defs>
    <linearGradient id="wire" x1="0" x2="1">
      <stop offset="0" stop-color="#596066"/>
      <stop offset=".5" stop-color="#c5ccd0"/>
      <stop offset="1" stop-color="#343a3f"/>
    </linearGradient>
  </defs>
  <g fill="none" stroke="url(#wire)" stroke-width="4" stroke-linecap="round">
    <path d="M8 45c42-34 78 34 120 0s78 34 120 0 78 34 120 0 78 34 144 0"/>
    <path d="M8 62c42-34 78 34 120 0s78 34 120 0 78 34 120 0 78 34 144 0"/>
  </g>
  <g stroke="#d4dadc" stroke-width="3" stroke-linecap="round">
    <path d="M47 31 34 58M34 31l13 27M112 50 99 77M99 50l13 27M178 31l-13 27M165 31l13 27M243 50l-13 27M230 50l13 27M308 31l-13 27M295 31l13 27M374 50l-13 27M361 50l13 27M439 31l-13 27M426 31l13 27M492 49l-13 27M479 49l13 27"/>
  </g>
</svg>
