<svg xmlns="http://www.w3.org/2000/svg" viewBox="0 0 170 120" role="img" aria-label="mine detector">
  <defs>
    <linearGradient id="rod" x1="28" x2="144" y1="80" y2="30">
      <stop offset="0" stop-color="#20242a"/>
      <stop offset=".45" stop-color="#737b7f"/>
      <stop offset="1" stop-color="#171b20"/>
    </linearGradient>
    <linearGradient id="grip" x1="0" x2="1">
      <stop offset="0" stop-color="#2b2119"/>
      <stop offset=".55" stop-color="#6f4c2e"/>
      <stop offset="1" stop-color="#241810"/>
    </linearGradient>
    <radialGradient id="coil" cx="50%" cy="50%" r="58%">
      <stop offset="0" stop-color="#3c4b4d"/>
      <stop offset=".64" stop-color="#12191d"/>
      <stop offset="1" stop-color="#050708"/>
    </radialGradient>
    <filter id="shadow" x="-20%" y="-20%" width="140%" height="140%">
      <feDropShadow dx="0" dy="4" stdDeviation="3" flood-color="#000" flood-opacity=".45"/>
    </filter>
  </defs>
  <g filter="url(#shadow)">
    <ellipse cx="45" cy="84" rx="35" ry="22" fill="#080b0d" opacity=".35"/>
    <ellipse cx="45" cy="80" rx="34" ry="20" fill="url(#coil)" stroke="#9aa3a6" stroke-width="4"/>
    <ellipse cx="45" cy="80" rx="22" ry="12" fill="none" stroke="#303c40" stroke-width="5"/>
    <ellipse cx="45" cy="80" rx="10" ry="5" fill="#0d1215" stroke="#7a8589" stroke-width="2"/>
    <path d="M70 68 128 34" stroke="url(#rod)" stroke-width="9" stroke-linecap="round"/>
    <path d="M95 52 116 83" stroke="#252b2d" stroke-width="7" stroke-linecap="round"/>
    <path d="M114 82c11 5 22 2 31-8" fill="none" stroke="#1a1f21" stroke-width="7" stroke-linecap="round"/>
    <path d="M120 31c8-11 18-16 31-14 5 1 8 7 5 11-4 7-12 9-22 7" fill="none" stroke="url(#grip)" stroke-width="12" stroke-linecap="round"/>
    <path d="M126 29c7-6 14-8 23-7" fill="none" stroke="#b78a58" stroke-width="3" stroke-linecap="round" opacity=".55"/>
    <circle cx="74" cy="66" r="6" fill="#252d31" stroke="#9aa3a6" stroke-width="2"/>
    <rect x="81" y="50" width="20" height="13" rx="3" fill="#11181c" stroke="#7a8589" stroke-width="2"/>
    <circle cx="88" cy="56" r="2" fill="#f3c43b"/>
    <circle cx="95" cy="56" r="2" fill="#2fd2ba"/>
  </g>
</svg>
