<svg xmlns="http://www.w3.org/2000/svg" viewBox="0 0 96 96" role="img" aria-label="minesweeper logo">
  <defs>
    <linearGradient id="shell" x1="14" x2="82" y1="8" y2="88">
      <stop offset="0" stop-color="#203044"/>
      <stop offset=".52" stop-color="#101923"/>
      <stop offset="1" stop-color="#05090d"/>
    </linearGradient>
    <linearGradient id="edge" x1="16" x2="80">
      <stop offset="0" stop-color="#22d3ee"/>
      <stop offset=".48" stop-color="#14b8a6"/>
      <stop offset="1" stop-color="#f3c43b"/>
    </linearGradient>
    <radialGradient id="core" cx="50%" cy="50%" r="50%">
      <stop offset="0" stop-color="#f8fafc"/>
      <stop offset=".42" stop-color="#f3c43b"/>
      <stop offset="1" stop-color="#d98606"/>
    </radialGradient>
    <filter id="glow" x="-35%" y="-35%" width="170%" height="170%">
      <feGaussianBlur stdDeviation="2.5" result="blur"/>
      <feMerge>
        <feMergeNode in="blur"/>
        <feMergeNode in="SourceGraphic"/>
      </feMerge>
    </filter>
  </defs>
  <rect x="7" y="7" width="82" height="82" rx="18" fill="url(#shell)"/>
  <path fill="none" stroke="#324155" stroke-width="3" d="M21 9h50a16 16 0 0 1 16 16v46a16 16 0 0 1-16 16H25A16 16 0 0 1 9 71V25A16 16 0 0 1 21 9z"/>
  <path fill="none" stroke="url(#edge)" stroke-linecap="round" stroke-width="4.5" d="M72 17 55 60"/>
  <g filter="url(#glow)">
    <circle cx="45" cy="52" r="29" fill="none" stroke="#22d3ee" stroke-opacity=".32" stroke-width="3"/>
    <circle cx="45" cy="52" r="20" fill="none" stroke="#f3c43b" stroke-width="4"/>
    <circle cx="45" cy="52" r="8" fill="url(#core)"/>
    <path fill="none" stroke="#22d3ee" stroke-linecap="round" stroke-width="3" d="M19 52h9M62 52h9M45 26v8M45 70v8"/>
  </g>
  <path fill="#22d3ee" opacity=".4" d="M21 15h22v3H21zM18 24h10v3H18zM57 78h18v3H57z"/>
</svg>
