<svg xmlns="http://www.w3.org/2000/svg" viewBox="0 0 260 260" role="img" aria-label="combat shovel">
  <defs>
    <linearGradient id="metal" x1="0" x2="1">
      <stop offset="0" stop-color="#4d5556"/>
      <stop offset=".5" stop-color="#c3c9c7"/>
      <stop offset="1" stop-color="#283033"/>
    </linearGradient>
    <linearGradient id="wood" x1="0" x2="1">
      <stop offset="0" stop-color="#4b2f1e"/>
      <stop offset=".55" stop-color="#9f6a3d"/>
      <stop offset="1" stop-color="#2b1a11"/>
    </linearGradient>
  </defs>
  <path fill="#0d0f0b" opacity=".28" d="M43 222c38-18 114-21 164-4-46 25-126 25-164 4z"/>
  <g transform="rotate(-37 130 130)">
    <rect x="120" y="42" width="20" height="146" rx="9" fill="url(#wood)"/>
    <rect x="113" y="25" width="34" height="32" rx="13" fill="none" stroke="url(#wood)" stroke-width="12"/>
    <path fill="url(#metal)" stroke="#1d2427" stroke-width="4" d="M94 174c20-14 53-14 73 0-4 39-22 62-37 70-16-8-32-31-36-70z"/>
    <path fill="#edf0e8" opacity=".34" d="M111 183c10-6 27-6 38 0-5 21-12 36-19 43-8-7-15-22-19-43z"/>
  </g>
</svg>
