<svg xmlns="http://www.w3.org/2000/svg" viewBox="0 0 360 150" role="img" aria-label="sandbags">
  <defs>
    <linearGradient id="bag" x1="0" x2="1">
      <stop offset="0" stop-color="#8a7147"/>
      <stop offset=".55" stop-color="#c0a36a"/>
      <stop offset="1" stop-color="#6b5637"/>
    </linearGradient>
    <filter id="s" x="-10%" y="-10%" width="120%" height="130%">
      <feDropShadow dx="0" dy="8" stdDeviation="5" flood-color="#000" flood-opacity=".32"/>
    </filter>
  </defs>
  <g filter="url(#s)">
    <ellipse cx="180" cy="137" rx="158" ry="10" fill="#0d0f0b" opacity=".34"/>
    <g fill="url(#bag)" stroke="#4c3d27" stroke-width="3">
      <rect x="18" y="84" width="74" height="38" rx="18"/>
      <rect x="85" y="80" width="88" height="42" rx="20"/>
      <rect x="165" y="84" width="82" height="39" rx="18"/>
      <rect x="240" y="80" width="88" height="42" rx="20"/>
      <rect x="48" y="49" width="84" height="39" rx="18"/>
      <rect x="124" y="44" width="92" height="43" rx="20"/>
      <rect x="209" y="49" width="89" height="39" rx="18"/>
      <rect x="86" y="14" width="94" height="39" rx="18"/>
      <rect x="174" y="12" width="94" height="41" rx="19"/>
    </g>
    <g stroke="#ead9a7" stroke-linecap="round" opacity=".42">
      <path d="M39 99c12-6 24-6 36-1M110 96c15-6 29-6 43 0M188 99c12-5 24-5 36 0M263 96c14-6 29-5 44 0"/>
      <path d="M73 65c14-5 28-5 42 0M151 63c14-6 29-6 44 0M231 65c14-5 28-5 43 0"/>
      <path d="M111 31c14-5 29-5 44 0M199 30c14-5 29-5 44 0"/>
    </g>
  </g>
</svg>
